<svg width="24" height="24" viewBox="0 0 24 24" fill="none" xmlns="http://www.w3.org/2000/svg">
<path d="M21.1641 20.045H20.7188C20.5276 20.045 20.3698 20.1951 20.3467 20.3889H17.6251C17.25 20.3889 17.25 21.1259 17.6251 21.1259H20.3625C20.4117 21.2828 20.5527 21.3961 20.7188 21.3961H21.1641C21.3713 21.3961 21.5391 21.2201 21.5391 21.0031V20.4381C21.5391 20.221 21.3713 20.045 21.1641 20.045Z" fill="#FF5810"/>
<path fill-rule="evenodd" clip-rule="evenodd" d="M19.8773 9.5957e-05C22.0292 0.220742 23.253 1.92578 23.4562 3.61744L23.4608 3.65735L23.4609 3.65908L24 15.8924C24 15.8928 24 15.8932 24 15.8936V23.6807C24 23.777 23.9502 23.8486 23.8791 23.895C23.8085 23.941 23.7161 23.9632 23.625 23.9632C23.5339 23.9632 23.4415 23.941 23.3709 23.895C23.2998 23.8486 23.25 23.777 23.25 23.6807V15.9427L22.6642 3.76204C22.512 3.0751 22.3371 2.44218 21.9369 1.92854C21.5373 1.41559 20.9106 1.01879 19.8492 0.810645H8.27536C7.53205 0.93243 6.92808 1.07836 6.1875 1.41633V2.63891C7.05851 2.20953 7.50527 2.11107 8.33926 1.94111L8.34375 1.94063H19.8516L19.856 1.94111C20.7087 2.11487 21.4669 2.90846 21.5857 3.75489C21.5859 3.75607 21.5859 3.75726 21.5859 3.75844V14.7636C21.5859 14.7661 21.5855 14.7687 21.5848 14.7711C21.3494 15.5359 21.0425 15.995 20.6864 16.2905C20.3307 16.5857 19.928 16.7156 19.5057 16.8263C19.505 16.8265 19.5044 16.8266 19.5038 16.8267L16.4827 17.3422L15.3593 17.7987C15.4386 17.9931 15.6331 18.6112 15.6416 19.1879C15.646 19.4894 15.5998 19.7834 15.4561 19.9996C15.3132 20.2146 15.0767 20.3485 14.7099 20.3402C14.6922 20.3752 14.6563 20.4229 14.6084 20.4718C14.5521 20.5292 14.477 20.5907 14.3897 20.638C14.2185 20.7308 13.9978 20.7703 13.782 20.6159C13.664 20.7106 13.5183 20.7758 13.3657 20.7789C13.2089 20.7821 13.0471 20.7196 12.9039 20.5609C12.7347 20.5609 12.5971 20.5603 12.488 20.5063C12.3739 20.4499 12.2948 20.3376 12.2353 20.1256C12.2347 20.1234 12.2344 20.1211 12.2344 20.1187V18.8949C12.165 18.7014 12.1073 18.5689 12.0357 18.4458C11.965 18.3243 11.8802 18.2111 11.756 18.0569L5.08594 19.0592V21.8383C5.08594 21.8944 5.06118 21.956 5.02428 22.0152C4.98703 22.075 4.93572 22.1349 4.87889 22.1882C4.82204 22.2415 4.75899 22.2888 4.69775 22.3229C4.63702 22.3567 4.57588 22.3787 4.52344 22.3787H2.27344C2.22065 22.3787 2.16364 22.3565 2.10905 22.3223C2.05413 22.2879 1.99975 22.2403 1.95168 22.1867C1.90359 22.1332 1.86128 22.0731 1.83087 22.0134C1.80065 21.954 1.78125 21.893 1.78125 21.8383V19.2835C1.78126 19.2709 1.79033 19.2604 1.80226 19.2591L1.80469 19.2835C1.80227 19.2591 1.80226 19.2591 1.80226 19.2591C1.80263 19.2591 1.80375 19.2589 1.8045 19.2589C1.806 19.2587 1.80826 19.2584 1.81123 19.2581C1.81719 19.2574 1.82606 19.2564 1.83765 19.255C1.86082 19.2522 1.89488 19.2479 1.9384 19.242C2.02548 19.2302 2.1504 19.212 2.30154 19.1864C2.60389 19.135 3.01101 19.0538 3.43039 18.9343C3.84995 18.8148 4.28079 18.6573 4.6311 18.4537C4.98069 18.2505 5.24601 18.0037 5.34375 17.707V16.2846L4.54688 16.2151V17.0719C4.57085 17.3196 4.40178 17.5184 4.15018 17.6757C3.89676 17.8341 3.55137 17.9561 3.20499 18.0484C2.85822 18.1408 2.50873 18.2039 2.24606 18.2439C2.11469 18.2639 2.00493 18.2781 1.92801 18.2873C1.88956 18.292 1.85931 18.2953 1.83865 18.2976C1.82834 18.2987 1.82039 18.2995 1.81503 18.3C1.81237 18.3003 1.81032 18.3005 1.80894 18.3006C1.80827 18.3007 1.80774 18.3007 1.80739 18.3008C1.80739 18.3008 1.80683 18.3008 1.80469 18.2764L1.80739 18.3008C1.80083 18.3014 1.79376 18.2992 1.78889 18.2945C1.78403 18.2899 1.78125 18.2833 1.78125 18.2764V15.1812C1.78125 15.179 1.78153 15.1768 1.78207 15.1747L3.23438 9.57709V5.72806L0.75 14.8897V23.6807C0.75 23.7877 0.701679 23.8685 0.630295 23.9217C0.559598 23.9744 0.466658 24 0.375 24C0.283342 24 0.190402 23.9744 0.119705 23.9217C0.0483205 23.8685 0 23.7877 0 23.6807V14.8864C1.31136e-06 14.8841 0.000286011 14.8819 0.000869751 14.8797L3.63368 1.39354C3.63449 1.39052 3.63589 1.38772 3.63771 1.38524C4.27064 0.525282 5.14528 0.24212 5.74608 0.661096L7.96234 0.00095957C7.96443 0.000338772 7.96658 6.93075e-08 7.96875 0H19.875L19.8773 9.5957e-05ZM14.3069 17.1826C14.2293 17.1326 14.1482 17.1012 14.0792 17.1229L12.1336 17.7616C12.1255 17.7643 12.1194 17.7713 12.1177 17.78C12.1162 17.7876 12.1182 17.7955 12.123 17.8012L12.1253 17.8037C12.125 17.8034 12.1255 17.8039 12.1253 17.8037C12.126 17.8043 12.1277 17.8059 12.129 17.8072C12.1316 17.8097 12.1356 17.8136 12.1407 17.8188C12.151 17.8293 12.166 17.8452 12.1845 17.8665C12.2215 17.9091 12.2728 17.9735 12.3293 18.06C12.4419 18.2325 12.5749 18.4929 12.6562 18.8444V20.0205C12.6563 20.0247 12.6573 20.0288 12.6592 20.0324C12.6753 20.0628 12.6946 20.0843 12.7175 20.0957C12.7409 20.1072 12.7651 20.1066 12.7878 20.0987C12.8311 20.0836 12.8721 20.0407 12.9061 19.9959C12.9408 19.9499 12.9716 19.8972 12.9934 19.8563C13.0044 19.8359 13.0133 19.8182 13.0194 19.8056C13.0224 19.7994 13.0248 19.7943 13.0264 19.7908C13.0272 19.7891 13.0279 19.7877 13.0283 19.7868C13.0285 19.7864 13.0287 19.786 13.0288 19.7858C13.0303 19.7825 13.0312 19.7785 13.0312 19.7748V19.0624C13.0313 18.9959 13.0561 18.9475 13.0925 18.9154C13.1294 18.8829 13.1795 18.8659 13.2305 18.8659C13.2815 18.8659 13.3315 18.8829 13.3684 18.9154C13.4048 18.9475 13.4297 18.9959 13.4297 19.0624V19.7686C13.3715 19.8799 13.3308 20.0021 13.3046 20.0966C13.2913 20.1447 13.2817 20.1859 13.2754 20.215C13.2722 20.2296 13.2699 20.2412 13.2683 20.2492C13.2676 20.2532 13.267 20.2563 13.2666 20.2584C13.2664 20.2595 13.2663 20.2603 13.2662 20.2608C13.2661 20.2611 13.2662 20.2607 13.2662 20.2608C13.2644 20.2713 13.269 20.2826 13.2778 20.2877C13.3139 20.3083 13.3498 20.3157 13.3847 20.3117C13.4194 20.3078 13.4515 20.293 13.4808 20.2717C13.5388 20.2295 13.5885 20.1599 13.6286 20.0882C13.669 20.0161 13.701 19.9396 13.7228 19.8813C13.7338 19.8522 13.7422 19.8274 13.748 19.81C13.7508 19.8013 13.753 19.7943 13.7545 19.7896C13.7552 19.7872 13.7558 19.7853 13.7562 19.7841C13.7564 19.7835 13.7565 19.7829 13.7566 19.7826L13.7575 19.7785C13.7577 19.7773 13.7578 19.776 13.7578 19.7748V18.915C13.7578 18.849 13.7838 18.8007 13.8223 18.7684C13.8614 18.7356 13.9145 18.7185 13.9688 18.7185C14.023 18.7185 14.0761 18.7356 14.1152 18.7684C14.1537 18.8007 14.1797 18.849 14.1797 18.915V19.77C14.1447 19.8567 14.1157 19.9602 14.0955 20.042C14.0851 20.0837 14.077 20.1201 14.0715 20.146C14.0687 20.159 14.0666 20.1694 14.0652 20.1765C14.0644 20.18 14.0639 20.1828 14.0635 20.1847C14.0633 20.1856 14.0632 20.1864 14.0631 20.1869C14.0631 20.1871 14.0631 20.1867 14.0631 20.1869C14.061 20.1977 14.066 20.2094 14.0755 20.2144C14.1047 20.2297 14.1343 20.2308 14.1625 20.2207C14.1898 20.2109 14.2147 20.191 14.237 20.1664C14.2814 20.1173 14.3208 20.0436 14.3533 19.9693C14.386 19.8945 14.4127 19.8167 14.4312 19.7579C14.4404 19.7285 14.4477 19.7037 14.4526 19.6862C14.455 19.6775 14.4569 19.6706 14.4582 19.6658C14.4588 19.6635 14.4593 19.6616 14.4596 19.6603C14.4598 19.6597 14.4599 19.6592 14.46 19.6589C14.4605 19.6568 14.4609 19.6541 14.4609 19.652V18.7677C14.4609 18.7016 14.4869 18.6533 14.5254 18.621C14.5645 18.5883 14.6177 18.5711 14.6719 18.5711C14.7261 18.5711 14.7793 18.5883 14.8184 18.621C14.8569 18.6533 14.8828 18.7016 14.8828 18.7677V19.8485C14.8828 19.8556 14.8858 19.8624 14.8909 19.8671C14.896 19.8717 14.9028 19.8738 14.9095 19.8728C14.9582 19.8656 14.998 19.8349 15.0298 19.7967C15.0615 19.7585 15.0868 19.7108 15.1063 19.6651C15.1259 19.6193 15.1402 19.5744 15.1496 19.5411C15.1542 19.5244 15.1577 19.5106 15.16 19.5008C15.1612 19.496 15.1621 19.4921 15.1626 19.4894C15.1629 19.4881 15.1631 19.4871 15.1633 19.4864C15.1632 19.4866 15.1634 19.486 15.1633 19.4864L15.1635 19.4853C15.1639 19.4836 15.1641 19.4818 15.1641 19.48V18.694C15.1641 18.6929 15.164 18.6917 15.1638 18.6907L15.1632 18.6873C15.1631 18.687 15.1628 18.6861 15.1627 18.6855C15.1624 18.6843 15.1619 18.6825 15.1613 18.6802C15.16 18.6756 15.1582 18.6688 15.1557 18.66C15.1509 18.6425 15.1437 18.6169 15.1345 18.5851C15.1161 18.5216 15.0897 18.4331 15.0574 18.333C14.9928 18.1331 14.9044 17.8859 14.8098 17.6998L14.8076 17.6964C14.8076 17.6963 14.8078 17.6965 14.8076 17.6964C14.8074 17.6961 14.8067 17.6951 14.8062 17.6945C14.8053 17.6932 14.8039 17.6914 14.8022 17.6891C14.7986 17.6843 14.7934 17.6774 14.7867 17.6687C14.7733 17.6512 14.754 17.6264 14.73 17.5968C14.6821 17.5378 14.6157 17.4596 14.5418 17.3837C14.468 17.308 14.386 17.2336 14.3069 17.1826ZM13.8706 14.027L13.867 14.0281C12.765 14.4459 12.154 14.6922 11.0742 15.381C10.9591 15.4506 10.8431 15.3939 10.7834 15.2971C10.7536 15.249 10.7395 15.1929 10.7466 15.1412C10.7536 15.0903 10.7814 15.0413 10.8398 15.0059L11.3089 14.7109C11.316 14.7065 11.3203 14.6984 11.3203 14.6898C11.3203 14.6811 11.3159 14.6731 11.3088 14.6687L11.2969 14.6899C11.3074 14.671 11.3087 14.6689 11.3088 14.6687C11.3087 14.6686 11.309 14.6688 11.3088 14.6687C11.3084 14.6685 11.3071 14.6677 11.3063 14.6672C11.3047 14.6663 11.3024 14.6649 11.2993 14.663C11.2932 14.6594 11.2842 14.6541 11.2725 14.6474C11.2491 14.634 11.2149 14.6151 11.1718 14.5927C11.0855 14.5478 10.9631 14.4891 10.8186 14.4335C10.5302 14.3224 10.1509 14.2226 9.79376 14.2725C9.79036 14.273 9.78708 14.2742 9.78419 14.2761L9.79179 14.2886C9.78515 14.2777 9.78431 14.2763 9.78419 14.2761C9.78399 14.2763 9.78338 14.2768 9.783 14.277C9.78222 14.2775 9.78103 14.2783 9.77953 14.2794C9.7765 14.2814 9.77201 14.2845 9.7662 14.2886C9.75457 14.2967 9.73753 14.3087 9.71585 14.3245C9.67244 14.356 9.61031 14.4024 9.53549 14.4619C9.38588 14.581 9.18513 14.7529 8.98064 14.9641C8.57257 15.3857 8.14547 15.9681 8.08603 16.6035C8.0652 16.8262 8.06242 16.926 8.08607 17.1491C8.08612 17.1495 8.08619 17.15 8.08626 17.1504C8.12129 17.3707 8.15703 17.5364 8.24304 17.6556C8.33033 17.7765 8.46629 17.8457 8.69165 17.883C8.69221 17.8831 8.69278 17.8832 8.69334 17.8833C8.97575 17.9079 9.12986 17.9095 9.40059 17.8832C10.669 17.7601 12.8744 17.1944 14.9617 16.334C14.9727 16.3295 14.9788 16.317 14.9758 16.3049C14.8584 15.8375 14.7466 15.4795 14.5845 15.1335C14.4224 14.7875 14.2104 14.4543 13.8934 14.0359C13.8879 14.0287 13.8791 14.0253 13.8706 14.027ZM17.3528 11.3264C17.3435 11.3223 17.3329 11.325 17.3264 11.3326L17.3238 11.3362C16.8921 12.0698 16.3214 12.5999 15.7647 12.8339C15.2086 13.0676 14.6693 13.0056 14.2909 12.561C14.2826 12.5512 14.2684 12.55 14.2587 12.5582C13.9566 12.8139 13.5258 13.0521 13.0683 13.1986C12.6107 13.3453 12.1291 13.3994 11.7246 13.2904C11.721 13.2894 11.7172 13.2894 11.7135 13.2903L11.71 13.2915L10.4912 13.8074C10.4821 13.8112 10.4763 13.8206 10.4766 13.8309C10.4769 13.8411 10.4833 13.8502 10.4926 13.8534C11.0537 14.0494 11.3102 14.1717 11.7778 14.4412C11.7842 14.4449 11.792 14.4452 11.7987 14.4421C13.6741 13.5575 15.6598 12.8243 17.339 13.1909C17.3395 13.191 17.34 13.1911 17.3405 13.1912C17.4928 13.214 17.5664 13.3325 17.5664 13.4371C17.5664 13.4895 17.548 13.5376 17.5129 13.5698C17.4781 13.6017 17.424 13.6207 17.3475 13.6093C16.5012 13.4615 15.5595 13.4121 14.3594 13.8561C14.3527 13.8586 14.3474 13.8641 14.3451 13.8711C14.3427 13.8781 14.3435 13.8858 14.3472 13.8921C14.5944 14.3115 14.833 14.6528 15.0402 15.1299C15.247 15.6062 15.4223 16.2179 15.5392 17.174C15.5401 17.1811 15.5438 17.1874 15.5494 17.1913C15.555 17.1953 15.5619 17.1965 15.5685 17.1947C16.2391 17.0098 17.1376 16.5726 17.8671 16.1826C18.2321 15.9875 18.5554 15.8038 18.7874 15.669C18.9033 15.6016 18.9966 15.5464 19.0608 15.508C19.0929 15.4888 19.1177 15.4738 19.1346 15.4637C19.143 15.4586 19.1494 15.4547 19.1537 15.4521C19.1559 15.4507 19.1575 15.4497 19.1586 15.4491C19.1591 15.4488 19.1596 15.4485 19.1598 15.4483C19.2121 15.4154 19.2606 15.415 19.3021 15.433C19.3446 15.4514 19.3822 15.4898 19.4097 15.5367C19.4372 15.5837 19.4533 15.6368 19.4546 15.6819C19.4559 15.7274 19.4425 15.7592 19.418 15.774L19.4162 15.7752L19.0177 16.07C19.0097 16.0759 19.0061 16.0865 19.0086 16.0964C19.0111 16.1063 19.0193 16.1136 19.0291 16.1145C19.4099 16.152 19.7426 16.0334 19.9794 15.9062C20.0979 15.8426 20.1928 15.7766 20.258 15.7264C20.2906 15.7014 20.3159 15.6803 20.3331 15.6654C20.3417 15.6579 20.3482 15.652 20.3527 15.6479C20.3549 15.6459 20.3566 15.6443 20.3578 15.6432C20.3583 15.6427 20.3588 15.6422 20.3591 15.642C20.359 15.642 20.3592 15.6418 20.3591 15.642L20.3616 15.6392C20.3661 15.6337 20.368 15.6264 20.3669 15.6192C20.1437 14.2653 19.7558 13.3519 19.2398 12.6967C18.7237 12.0415 18.0812 11.6465 17.3528 11.3264ZM4.82812 3.78301C4.34477 3.78301 3.98438 4.21342 3.98438 4.71648V14.5916C3.98438 14.8437 4.07474 15.0531 4.2263 15.1993C4.37768 15.3452 4.58869 15.4268 4.82812 15.4268H5.95312C6.19268 15.4268 6.39235 15.3451 6.5322 15.1985C6.67204 15.052 6.75 14.8427 6.75 14.5916V4.71648C6.74999 4.21545 6.4382 3.78301 5.95312 3.78301H4.82812ZM12.5694 7.39517C12.5627 7.393 12.5554 7.39412 12.5495 7.39819C12.5452 7.40124 12.5419 7.40572 12.5403 7.41086L12.5392 7.41618L12.4689 8.15313C12.4679 8.16319 12.4729 8.17286 12.4815 8.17746C12.4901 8.18205 12.5005 8.18066 12.5078 8.17395L12.7126 7.98305C12.8574 7.9726 12.9192 8.00377 12.9495 8.05756C12.966 8.08677 12.9751 8.12557 12.9797 8.17563C12.9841 8.22299 12.9843 8.27806 12.9843 8.34145C12.9802 8.34552 12.9744 8.35124 12.9673 8.35843C12.9517 8.37417 12.9293 8.39711 12.9024 8.42589C12.8486 8.48344 12.7764 8.56462 12.7026 8.65897C12.6288 8.75326 12.5533 8.86114 12.4931 8.97212C12.433 9.08286 12.3874 9.19828 12.3751 9.3073C12.3747 9.31166 12.3753 9.3161 12.377 9.32011C12.4268 9.43758 12.5082 9.49682 12.5771 9.52632C12.6113 9.54101 12.6424 9.54836 12.6651 9.55204C12.6764 9.55388 12.6857 9.55483 12.6923 9.5553C12.6955 9.55554 12.6981 9.55567 12.7 9.55573C12.7009 9.55577 12.7016 9.55577 12.7022 9.55578H13.2656C13.3091 9.55578 13.3451 9.57951 13.3718 9.61849C13.3988 9.65782 13.4153 9.71145 13.418 9.76588C13.4207 9.8204 13.4096 9.873 13.3847 9.91116C13.3605 9.94827 13.3223 9.97339 13.2656 9.97339H12.6094C12.6028 9.97339 12.5965 9.97633 12.592 9.98145C12.5876 9.98657 12.5854 9.99342 12.586 10.0003C12.6809 11.0438 13.4395 11.6459 13.9883 11.7417C14.1313 11.7667 14.2856 11.7667 14.4035 11.7605C14.4626 11.7574 14.5128 11.7528 14.5483 11.7489C14.5661 11.7469 14.5801 11.7452 14.5898 11.7439C14.5946 11.7433 14.5984 11.7428 14.6009 11.7424C14.6022 11.7422 14.6032 11.7421 14.6039 11.742C14.6037 11.742 14.6042 11.7419 14.6039 11.742L14.6072 11.7413C14.7986 11.6912 15.024 11.5603 15.2 11.4435C15.2884 11.3849 15.3649 11.3293 15.4194 11.2884C15.4466 11.268 15.4684 11.2512 15.4833 11.2395C15.4908 11.2337 15.4966 11.229 15.5005 11.2259C15.5022 11.2246 15.5036 11.2234 15.5045 11.2227C15.5871 11.1805 15.6745 11.2073 15.7294 11.2731C15.7838 11.3383 15.8063 11.4422 15.7545 11.5547C15.2921 11.9658 15.1324 11.9647 14.6392 12.1863C14.6326 12.1892 14.6276 12.1953 14.6258 12.2026C14.624 12.2099 14.6254 12.2177 14.6298 12.2237C14.7615 12.4057 14.9069 12.4987 15.0577 12.53C15.2079 12.5612 15.3606 12.5305 15.5065 12.4712C15.6524 12.4119 15.7932 12.3233 15.9203 12.2363C16.0484 12.1486 16.1608 12.0639 16.2537 12.0092C16.2547 12.0086 16.2557 12.0079 16.2566 12.0071C16.5745 11.748 16.7581 11.5311 16.8712 11.3502C16.9843 11.1692 17.0262 11.0251 17.0613 10.9146C17.0618 10.9131 17.0621 10.9115 17.0623 10.9099C17.074 10.812 17.086 10.7241 17.083 10.6053C17.08 10.4865 17.0621 10.3375 17.0151 10.1155C17.0127 10.1042 17.0032 10.0962 16.9922 10.0962C16.9918 10.0962 16.9907 10.0962 16.9898 10.0962C16.988 10.0961 16.9851 10.0959 16.9814 10.0955C16.974 10.0948 16.9632 10.0933 16.9504 10.0903C16.9247 10.0843 16.8912 10.0723 16.8593 10.0486C16.799 10.0038 16.7386 9.91311 16.7559 9.72323C16.8537 9.69729 16.9721 9.6117 17.0855 9.49504C17.2066 9.3705 17.3253 9.20719 17.4115 9.03282C17.4975 8.85875 17.552 8.67148 17.5422 8.49958C17.5322 8.32623 17.4566 8.16975 17.2856 8.06092L17.2821 8.05909L17.2396 8.04168C17.1981 8.02538 17.159 8.01266 17.1129 8.00541C17.0515 7.99575 16.9789 7.99593 16.8724 8.00833C16.8699 8.00862 16.8675 8.00933 16.8653 8.0104C16.7338 8.07302 16.648 8.14303 16.5892 8.23052C16.5311 8.31705 16.5011 8.41857 16.4775 8.54133C16.4338 8.65392 16.3494 8.70142 16.2701 8.69606C16.1912 8.69072 16.1123 8.6328 16.0788 8.52242C16.0789 8.52175 16.079 8.52099 16.0791 8.52022C16.08 8.51489 16.0811 8.50722 16.0822 8.49771C16.0845 8.47869 16.0869 8.45205 16.0876 8.42157C16.0888 8.36135 16.083 8.28281 16.0522 8.21829C15.9942 8.09665 15.9518 8.00151 15.8883 7.91909C15.8241 7.83573 15.739 7.76617 15.5964 7.69143C15.5938 7.69004 15.5909 7.6892 15.588 7.68894L15.585 7.68889C14.4133 7.73801 13.784 7.78687 12.5694 7.39517ZM10.8578 6.62794C10.793 6.62794 10.7094 6.63256 10.6377 6.65174C10.5682 6.67035 10.4994 6.7056 10.4814 6.77509C10.4724 6.80985 10.4775 6.84929 10.4966 6.89307C10.5155 6.93636 10.5489 6.98535 10.599 7.04113C10.6896 7.17351 10.8256 7.28424 10.9772 7.37583C11.1294 7.46783 11.2986 7.54134 11.4562 7.59845C11.6139 7.65559 11.7604 7.69653 11.8675 7.72315C11.9211 7.73646 11.9648 7.74618 11.9952 7.75261C12.0104 7.75582 12.0223 7.75822 12.0303 7.7598C12.0344 7.76059 12.0375 7.76118 12.0396 7.76158C12.0406 7.76178 12.0415 7.76196 12.042 7.76206C12.0419 7.76203 12.0423 7.7621 12.042 7.76206L12.0472 7.76254C12.0572 7.7624 12.0663 7.7555 12.0693 7.74517C12.0694 7.745 12.0695 7.74448 12.0696 7.74416C12.0698 7.74351 12.0701 7.74251 12.0704 7.74128C12.0711 7.73881 12.0721 7.73519 12.0733 7.73058C12.0758 7.7213 12.0793 7.70787 12.0832 7.69129C12.091 7.65815 12.1007 7.61208 12.1081 7.5605C12.1228 7.45889 12.1298 7.32991 12.0919 7.23703C12.0903 7.23308 12.0876 7.22966 12.0844 7.2271L12.081 7.2248L10.9794 6.63524C10.9768 6.63382 10.9739 6.63298 10.9709 6.63269C10.9708 6.63268 10.9711 6.63271 10.9709 6.63269C10.9706 6.63266 10.9693 6.63252 10.9686 6.63245C10.9671 6.63232 10.965 6.63215 10.9622 6.63192C10.9567 6.63148 10.9486 6.63088 10.9386 6.63029C10.9185 6.62912 10.8903 6.62794 10.8578 6.62794ZM15.8483 4.52044C15.027 4.34826 14.4815 4.34685 14.0379 4.5653C13.5946 4.78357 13.2576 5.2192 12.8473 5.90716C12.8439 5.91288 12.8429 5.91983 12.8445 5.92635C12.8462 5.93287 12.8502 5.93846 12.8559 5.94171C14.5229 6.90142 16.0254 7.31963 17.5964 7.68827C17.6089 7.69119 17.6213 7.68311 17.6243 7.67013C17.8846 6.5541 17.4112 5.04147 15.8508 4.52111C15.85 4.52084 15.8492 4.52062 15.8483 4.52044ZM12.6562 6.41146C12.3043 6.41146 12.1151 6.41147 11.7379 6.48559C11.7283 6.48747 11.7209 6.49531 11.7191 6.50531C11.7174 6.5153 11.7217 6.52539 11.73 6.53069C12.6961 7.1481 13.6853 7.27124 14.5312 7.27124C14.5423 7.27124 14.5518 7.26318 14.5541 7.2519C14.5565 7.24061 14.551 7.22916 14.541 7.22436C14.5408 7.22429 14.5403 7.22403 14.54 7.22388C14.5393 7.22358 14.5384 7.2231 14.5371 7.22249C14.5346 7.22128 14.5308 7.21948 14.5258 7.21712C14.5159 7.21239 14.5012 7.20544 14.4825 7.19654C14.4448 7.17872 14.3905 7.15308 14.3237 7.12179C14.1899 7.05919 14.006 6.97392 13.8052 6.88328C13.4041 6.70222 12.9341 6.49901 12.6631 6.41257C12.662 6.41221 12.6608 6.41193 12.6597 6.41175L12.6562 6.41146ZM5.36032 1.38288C5.24905 1.26625 5.12259 1.23661 4.99713 1.25852C4.87312 1.28018 4.75091 1.35193 4.64415 1.43585C4.53707 1.52002 4.44367 1.61795 4.37718 1.6946C4.3439 1.73297 4.31725 1.76614 4.2989 1.78974C4.28973 1.80154 4.28263 1.81098 4.2778 1.81747C4.27538 1.82072 4.27352 1.82324 4.27226 1.82496C4.27164 1.82581 4.27117 1.82647 4.27084 1.82693C4.27068 1.82715 4.27093 1.8268 4.27084 1.82693C4.27098 1.82705 4.27205 1.829 4.28906 1.84237L4.27084 1.82693C4.26922 1.8292 4.26743 1.83247 4.26663 1.83518L3.82132 3.35821C3.81857 3.3676 3.82145 3.37782 3.8286 3.38416C3.83576 3.39051 3.84585 3.39177 3.85423 3.38738C4.41477 3.09363 4.65703 3.06458 4.82185 3.06755C4.90328 3.06903 4.97395 3.07917 5.05302 3.06851C5.134 3.0576 5.22495 3.02534 5.35565 2.94439C5.36279 2.93997 5.36719 2.93192 5.36719 2.92323V1.40025C5.36719 1.39374 5.36471 1.38749 5.36032 1.38288Z" fill="#1E5FFF"/>
<path d="M14.3203 9.87513C14.0859 10.1453 14.0156 10.219 13.6641 10.3419C13.3594 10.4893 13.5703 10.8591 13.8281 10.784C14.25 10.6612 14.4141 10.4893 14.6719 10.1208C14.8125 9.94882 14.5781 9.53122 14.3203 9.87513Z" fill="#12A150"/>
<path d="M13.7578 8.67144L13.9922 8.45036L14.2266 8.62231C14.4609 8.76414 14.6719 8.52405 14.5313 8.2784C14.3672 8.08188 14.25 8.03275 13.9922 7.88536C13.8047 7.98362 13.6641 8.05732 13.4766 8.2784C13.2891 8.47492 13.4297 8.79427 13.7578 8.67144Z" fill="#12A150"/>
<path d="M15.4687 5.03579L15.1875 6.04296C15.1172 6.28864 15.539 6.43603 15.6328 6.19035L15.9141 5.13405C15.9141 4.81474 15.5253 4.81471 15.4687 5.03579Z" fill="#12A150"/>
</svg>
